<svg width="25" height="25" viewBox="0 0 25 25" fill="none" xmlns="http://www.w3.org/2000/svg">
<path d="M8.61045 3C8.61045 2.80109 8.53144 2.61032 8.39078 2.46967C8.25013 2.32902 8.05937 2.25 7.86045 2.25C7.66154 2.25 7.47078 2.32902 7.33012 2.46967C7.18947 2.61032 7.11045 2.80109 7.11045 3V4.58C5.67045 4.695 4.72645 4.977 4.03245 5.672C3.33745 6.366 3.05545 7.311 2.93945 8.75H22.7815C22.6655 7.31 22.3835 6.366 21.6885 5.672C20.9945 4.977 20.0495 4.695 18.6105 4.579V3C18.6105 2.80109 18.5314 2.61032 18.3908 2.46967C18.2501 2.32902 18.0594 2.25 17.8605 2.25C17.6615 2.25 17.4708 2.32902 17.3301 2.46967C17.1895 2.61032 17.1105 2.80109 17.1105 3V4.513C16.4455 4.5 15.6995 4.5 14.8605 4.5H10.8605C10.0215 4.5 9.27545 4.5 8.61045 4.513V3Z" fill="#1376BC"/>
<path fill-rule="evenodd" clip-rule="evenodd" d="M2.86035 12.5C2.86035 11.661 2.86035 10.915 2.87335 10.25H22.8474C22.8604 10.915 22.8604 11.661 22.8604 12.5V14.5C22.8604 18.271 22.8604 20.157 21.6884 21.328C20.5174 22.5 18.6314 22.5 14.8604 22.5H10.8604C7.08935 22.5 5.20335 22.5 4.03235 21.328C2.86035 20.157 2.86035 18.271 2.86035 14.5V12.5ZM17.8604 14.5C18.1256 14.5 18.3799 14.3946 18.5675 14.2071C18.755 14.0196 18.8604 13.7652 18.8604 13.5C18.8604 13.2348 18.755 12.9804 18.5675 12.7929C18.3799 12.6054 18.1256 12.5 17.8604 12.5C17.5951 12.5 17.3408 12.6054 17.1532 12.7929C16.9657 12.9804 16.8604 13.2348 16.8604 13.5C16.8604 13.7652 16.9657 14.0196 17.1532 14.2071C17.3408 14.3946 17.5951 14.5 17.8604 14.5ZM17.8604 18.5C18.1256 18.5 18.3799 18.3946 18.5675 18.2071C18.755 18.0196 18.8604 17.7652 18.8604 17.5C18.8604 17.2348 18.755 16.9804 18.5675 16.7929C18.3799 16.6054 18.1256 16.5 17.8604 16.5C17.5951 16.5 17.3408 16.6054 17.1532 16.7929C16.9657 16.9804 16.8604 17.2348 16.8604 17.5C16.8604 17.7652 16.9657 18.0196 17.1532 18.2071C17.3408 18.3946 17.5951 18.5 17.8604 18.5ZM13.8604 13.5C13.8604 13.7652 13.755 14.0196 13.5675 14.2071C13.3799 14.3946 13.1256 14.5 12.8604 14.5C12.5951 14.5 12.3408 14.3946 12.1532 14.2071C11.9657 14.0196 11.8604 13.7652 11.8604 13.5C11.8604 13.2348 11.9657 12.9804 12.1532 12.7929C12.3408 12.6054 12.5951 12.5 12.8604 12.5C13.1256 12.5 13.3799 12.6054 13.5675 12.7929C13.755 12.9804 13.8604 13.2348 13.8604 13.5ZM13.8604 17.5C13.8604 17.7652 13.755 18.0196 13.5675 18.2071C13.3799 18.3946 13.1256 18.5 12.8604 18.5C12.5951 18.5 12.3408 18.3946 12.1532 18.2071C11.9657 18.0196 11.8604 17.7652 11.8604 17.5C11.8604 17.2348 11.9657 16.9804 12.1532 16.7929C12.3408 16.6054 12.5951 16.5 12.8604 16.5C13.1256 16.5 13.3799 16.6054 13.5675 16.7929C13.755 16.9804 13.8604 17.2348 13.8604 17.5ZM7.86035 14.5C8.12557 14.5 8.37992 14.3946 8.56746 14.2071C8.75499 14.0196 8.86035 13.7652 8.86035 13.5C8.86035 13.2348 8.75499 12.9804 8.56746 12.7929C8.37992 12.6054 8.12557 12.5 7.86035 12.5C7.59514 12.5 7.34078 12.6054 7.15324 12.7929C6.96571 12.9804 6.86035 13.2348 6.86035 13.5C6.86035 13.7652 6.96571 14.0196 7.15324 14.2071C7.34078 14.3946 7.59514 14.5 7.86035 14.5ZM7.86035 18.5C8.12557 18.5 8.37992 18.3946 8.56746 18.2071C8.75499 18.0196 8.86035 17.7652 8.86035 17.5C8.86035 17.2348 8.75499 16.9804 8.56746 16.7929C8.37992 16.6054 8.12557 16.5 7.86035 16.5C7.59514 16.5 7.34078 16.6054 7.15324 16.7929C6.96571 16.9804 6.86035 17.2348 6.86035 17.5C6.86035 17.7652 6.96571 18.0196 7.15324 18.2071C7.34078 18.3946 7.59514 18.5 7.86035 18.5Z" fill="#1376BC"/>
</svg>
