<svg width="18" height="18" viewBox="0 0 18 18" fill="none" xmlns="http://www.w3.org/2000/svg">
<g clip-path="url(#clip0_217_335)">
<path d="M3.25557 0.738281C2.13057 0.738281 1.00416 1.58203 1.00416 3.26953L3.25557 7.76953L5.50557 3.26953C5.50557 1.58203 4.38057 0.738281 3.25557 0.738281ZM13.1802 2.10938C12.9376 2.11957 12.7021 2.16562 12.5052 2.20781L12.6388 2.82656C12.8356 2.78262 13.0395 2.75484 13.2118 2.74219L13.1802 2.10938ZM3.25557 2.14453C3.87783 2.14453 4.38057 2.64832 4.38057 3.26953C4.38057 3.8918 3.87783 4.39453 3.25557 4.39453C2.63436 4.39453 2.13057 3.8918 2.13057 3.26953C2.13057 2.64832 2.63436 2.14453 3.25557 2.14453ZM13.8798 2.15156L13.7743 2.77383C13.9466 2.81004 14.1188 2.85539 14.27 2.94609L14.5759 2.39062C14.3614 2.27637 14.1224 2.17371 13.8798 2.15156ZM11.8583 2.38711C11.6438 2.47078 11.4294 2.54566 11.2466 2.61914L11.4962 3.19922C11.6895 3.11695 11.8935 3.04523 12.0657 2.98477L11.8583 2.38711ZM15.1524 2.8582L14.6708 3.26953C14.7974 3.41438 14.8958 3.59297 14.9731 3.73711L15.5392 3.45234C15.4196 3.22207 15.3142 3.0477 15.1524 2.8582ZM10.6595 2.88984C10.445 2.99918 10.2692 3.09656 10.0794 3.19219L10.3888 3.74766C10.5716 3.64219 10.772 3.54023 10.9337 3.45938L10.6595 2.88984ZM9.52392 3.51914C9.3376 3.62812 9.15478 3.73711 8.97549 3.85664L9.32002 4.38398C9.49228 4.27148 9.67158 4.16602 9.84736 4.06055L9.52392 3.51914ZM15.7571 4.14844C15.5497 4.18359 15.3388 4.2082 15.1313 4.23281C15.1454 4.40859 15.1349 4.59844 15.0997 4.74609L15.7149 4.89023C15.7501 4.63711 15.7817 4.37695 15.7571 4.14844ZM8.44111 4.2082C8.26533 4.32773 8.09307 4.45078 7.91728 4.57031L8.28291 5.08711C8.45166 4.96406 8.62393 4.84805 8.79619 4.72852L8.44111 4.2082ZM7.40049 4.95C7.22471 5.07656 7.04189 5.21719 6.89072 5.3332L7.27393 5.83594C7.46728 5.69531 7.60088 5.58984 7.77666 5.45977L7.40049 4.95ZM14.8888 5.23125C14.7833 5.39297 14.6603 5.55469 14.5372 5.67773L14.9978 6.11719C15.1489 5.93789 15.3106 5.75508 15.4231 5.57227L14.8888 5.23125ZM6.38799 5.72695C6.21572 5.86055 6.04346 5.99766 5.89228 6.12422L6.29307 6.61289C6.4583 6.47578 6.62705 6.33516 6.78174 6.22266L6.38799 5.72695ZM14.1013 6.08203C13.9395 6.21211 13.7708 6.33867 13.6161 6.44414L13.9782 6.96445C14.1645 6.83789 14.3474 6.70078 14.5056 6.57422L14.1013 6.08203ZM5.40361 6.53555C5.23838 6.66914 5.08017 6.80977 4.91846 6.94688L5.32978 7.42852C5.48799 7.29141 5.64619 7.1543 5.80791 7.0207L5.40361 6.53555ZM13.0993 6.78164C12.92 6.88711 12.7337 6.99609 12.5649 7.0875L12.8673 7.64648C13.0571 7.53047 13.2716 7.42852 13.4298 7.32305L13.0993 6.78164ZM4.43682 7.36523C4.27861 7.50586 4.12393 7.64648 3.96572 7.79063L4.39111 8.26172C4.5458 8.12109 4.704 7.98047 4.85869 7.83984L4.43682 7.36523ZM12.013 7.3793C11.8267 7.4707 11.6403 7.56563 11.454 7.65703L11.7247 8.22656C11.9427 8.12109 12.1044 8.0332 12.3013 7.9418L12.013 7.3793ZM10.888 7.9207C10.6946 8.00859 10.5083 8.09297 10.3114 8.17383L10.5681 8.75391C10.7614 8.66953 10.9548 8.58164 11.1481 8.49375L10.888 7.9207ZM3.50166 8.22656C3.32236 8.38477 3.19756 8.50781 3.03408 8.66602L3.48057 9.12305C3.6458 8.96484 3.77939 8.82773 3.93408 8.69414L3.50166 8.22656ZM9.73486 8.43047C9.5415 8.51133 9.34814 8.5957 9.15478 8.67656L9.40088 9.26367C9.59775 9.18281 9.79111 9.09844 9.98447 9.01406L9.73486 8.43047ZM8.57119 8.92266C8.37783 9.00703 8.18447 9.09141 7.9876 9.16875L8.23369 9.75586C8.42705 9.675 8.62393 9.59062 8.81728 9.50977L8.57119 8.92266ZM15.0681 9.17578C13.9431 9.17578 12.8181 10.0195 12.8181 11.707L15.0681 16.207L17.3181 11.707C17.3181 10.0195 16.1931 9.17578 15.0681 9.17578ZM7.404 9.41484C7.20361 9.50625 6.99268 9.59062 6.82041 9.66445L7.07002 10.248C7.27744 10.1602 7.47432 10.0758 7.6501 9.99844L7.404 9.41484ZM6.23682 9.91406C6.04697 10.002 5.82549 10.1004 5.65674 10.1777L5.91689 10.7543C6.12432 10.6629 6.30713 10.5715 6.48994 10.4941L6.23682 9.91406ZM5.07666 10.4414C4.87978 10.5363 4.67588 10.6348 4.5001 10.7227L4.78486 11.2887C4.97471 11.1902 5.17158 11.0988 5.34385 11.0145L5.07666 10.4414ZM15.0681 10.582C15.6903 10.582 16.1931 11.0848 16.1931 11.707C16.1931 12.3293 15.6903 12.832 15.0681 12.832C14.4458 12.832 13.9431 12.3293 13.9431 11.707C13.9431 11.0848 14.4458 10.582 15.0681 10.582ZM3.93057 11.0145C3.74424 11.1164 3.55791 11.2219 3.36807 11.3309L3.68447 11.8793C3.86377 11.7738 4.04658 11.6754 4.22939 11.577L3.93057 11.0145ZM2.81611 11.6719C2.61889 11.7844 2.42834 11.9355 2.26416 12.0445L2.64736 12.5508C2.82209 12.4242 3.01018 12.2941 3.16064 12.2027L2.81611 11.6719ZM1.76494 12.4664C1.59619 12.6211 1.4299 12.8004 1.30088 12.9516L1.78252 13.3629C1.91787 13.1977 2.03564 13.0746 2.19385 12.934L1.76494 12.4664ZM9.42197 12.5121L9.47822 13.1414C9.66103 13.1098 9.84385 13.1309 10.0267 13.159L10.1356 12.5367C9.90361 12.5016 9.65752 12.477 9.42197 12.5121ZM8.11416 12.8637L8.35322 13.4508C8.53603 13.3699 8.72588 13.3066 8.91924 13.2469C8.85244 13.0465 8.80322 12.8426 8.75049 12.6387C8.529 12.702 8.30752 12.7863 8.11416 12.8637ZM10.8388 12.832L10.4802 13.3523C10.6278 13.4613 10.772 13.5773 10.888 13.7215L11.3661 13.3066C11.1868 13.1238 11.0497 12.9516 10.8388 12.832ZM7.5165 13.1484C7.32314 13.2469 7.13682 13.3594 6.95049 13.4684L7.27041 14.0133C7.45322 13.9148 7.63252 13.7988 7.81182 13.7039L7.5165 13.1484ZM0.914512 13.5352C0.80834 13.7637 0.722207 14.0098 0.682129 14.2277L1.30439 14.3367C1.34236 14.1363 1.39686 13.9922 1.47666 13.8199C1.28365 13.7355 1.09943 13.6336 0.914512 13.5352ZM6.40205 13.8094C6.22275 13.9254 6.04697 14.0414 5.87119 14.1609L6.22275 14.6883C6.39853 14.5723 6.5708 14.4527 6.74658 14.3367L6.40205 13.8094ZM11.7704 13.8516L11.2396 14.1961C11.352 14.3648 11.461 14.5406 11.563 14.7199L12.1114 14.4035C11.9884 14.2066 11.9005 14.0309 11.7704 13.8516ZM5.34736 14.5195C5.17158 14.6355 4.9958 14.748 4.82353 14.8711L5.1751 15.3984C5.34385 15.2754 5.52314 15.1594 5.70244 15.0398L5.34736 14.5195ZM1.31143 14.8535C1.10787 14.8957 0.902559 14.9309 0.697949 14.9695C0.734863 15.2156 0.833652 15.4547 0.922949 15.6445L1.49424 15.3703C1.41795 15.1945 1.34553 15.0117 1.31143 14.8535ZM12.4243 14.952L11.8759 15.2684C11.9849 15.4582 12.1114 15.6621 12.2134 15.8238L12.7442 15.4828C12.6247 15.2965 12.5228 15.1207 12.4243 14.952ZM4.30322 15.2156C4.12744 15.3246 3.95518 15.4301 3.77236 15.532L4.08525 16.084C4.27158 15.975 4.45791 15.866 4.63721 15.75L4.30322 15.2156ZM1.79658 15.7887L1.36416 16.2527C1.55963 16.4391 1.8008 16.5621 2.06377 16.6184L2.20439 16.0031C2.0483 15.9715 1.9024 15.8941 1.79658 15.7887ZM3.23799 15.7992C3.06186 15.8801 2.87904 15.9434 2.68955 15.982L2.83369 16.6008C3.05939 16.5551 3.27174 16.4707 3.48408 16.3828L3.23799 15.7992ZM13.0923 15.968L12.6036 16.3652C12.7548 16.5516 12.9411 16.7309 13.1028 16.8574L13.4931 16.3582C13.3384 16.2387 13.2048 16.0945 13.0923 15.968ZM13.9395 16.5832L13.7813 17.1984C14.0591 17.2547 14.2665 17.2723 14.5267 17.2441L14.4493 16.6148C14.2771 16.643 14.1083 16.6254 13.9395 16.5832Z" fill="rgba(0, 0, 0, 0.4)"/>
</g>
<defs>
<clipPath id="clip0_217_335">
<rect width="18" height="18" fill="white"/>
</clipPath>
</defs>
</svg>
