<svg width="20" height="20" viewBox="0 0 25 26" fill="none" xmlns="http://www.w3.org/2000/svg">
<path d="M24.5 2.77273V23.2273C24.5 23.7219 24.333 24.1829 24.055 24.5114C23.7792 24.8373 23.4248 25 23.0769 25H1.92308C1.57518 25 1.22077 24.8373 0.944949 24.5114C0.666997 24.1829 0.5 23.7219 0.5 23.2273V2.77273C0.5 2.27808 0.666998 1.81713 0.944949 1.48864C1.22077 1.16267 1.57518 1 1.92308 1H23.0769C23.4248 1 23.7792 1.16267 24.055 1.48864C24.333 1.81713 24.5 2.27808 24.5 2.77273Z" fill="white" stroke="black" stroke-width="4"/>
<path d="M20.7532 7.96391L10.6486 18.2486C10.5704 18.3283 10.4775 18.3915 10.3753 18.4347C10.273 18.4778 10.1635 18.5 10.0528 18.5C9.94214 18.5 9.83257 18.4778 9.73035 18.4347C9.62812 18.3915 9.53525 18.3283 9.45705 18.2486L5.24677 13.9633C5.08877 13.8025 5 13.5844 5 13.357C5 13.1295 5.08877 12.9114 5.24677 12.7506C5.40477 12.5898 5.61907 12.4994 5.84252 12.4994C6.06598 12.4994 6.28028 12.5898 6.43828 12.7506L10.0528 16.4306L19.5617 6.75117C19.7197 6.59035 19.934 6.5 20.1575 6.5C20.3809 6.5 20.5952 6.59035 20.7532 6.75117C20.9112 6.91199 21 7.1301 21 7.35754C21 7.58497 20.9112 7.80309 20.7532 7.96391Z" fill="black" stroke="black" stroke-width="2"/>
</svg>
