<svg width="19" height="19" viewBox="0 0 19 19" fill="none" xmlns="http://www.w3.org/2000/svg">
<path d="M9.23438 0.234375C7.45435 0.234375 5.71429 0.762215 4.23425 1.75115C2.7542 2.74008 1.60065 4.14569 0.919463 5.79022C0.238274 7.43476 0.0600446 9.24436 0.407312 10.9902C0.754578 12.736 1.61174 14.3397 2.87042 15.5983C4.12909 16.857 5.73274 17.7142 7.47856 18.0614C9.22439 18.4087 11.034 18.2305 12.6785 17.5493C14.3231 16.8681 15.7287 15.7145 16.7176 14.2345C17.7065 12.7545 18.2344 11.0144 18.2344 9.23437C18.2316 6.84829 17.2825 4.56073 15.5952 2.87351C13.908 1.18629 11.6205 0.237177 9.23438 0.234375ZM9.23438 17.1755C7.66376 17.1755 6.12842 16.7098 4.8225 15.8372C3.51658 14.9646 2.49874 13.7244 1.89769 12.2733C1.29664 10.8223 1.13938 9.22556 1.44579 7.68513C1.7522 6.14469 2.50853 4.72971 3.61912 3.61911C4.72971 2.50852 6.14469 1.7522 7.68513 1.44579C9.22557 1.13937 10.8223 1.29664 12.2733 1.89768C13.7244 2.49873 14.9646 3.51657 15.8372 4.82249C16.7098 6.12841 17.1756 7.66376 17.1756 9.23437C17.1732 11.3398 16.3358 13.3583 14.8471 14.8471C13.3583 16.3358 11.3398 17.1732 9.23438 17.1755ZM14.705 9.23437C14.705 9.37478 14.6492 9.50944 14.5499 9.60872C14.4506 9.70801 14.316 9.76378 14.1756 9.76378H9.23438C9.09397 9.76378 8.95931 9.70801 8.86003 9.60872C8.76074 9.50944 8.70497 9.37478 8.70497 9.23437V4.2932C8.70497 4.15279 8.76074 4.01813 8.86003 3.91885C8.95931 3.81956 9.09397 3.76379 9.23438 3.76379C9.37479 3.76379 9.50944 3.81956 9.60873 3.91885C9.70801 4.01813 9.76379 4.15279 9.76379 4.2932V8.70496H14.1756C14.316 8.70496 14.4506 8.76074 14.5499 8.86002C14.6492 8.95931 14.705 9.09396 14.705 9.23437Z" fill="rgba(0, 0, 0, 0.4)"/>
</svg>
