<svg width="38" height="39" viewBox="0 0 38 39" fill="none" xmlns="http://www.w3.org/2000/svg">
<rect y="0.5" width="38" height="38" rx="9.12" fill="#DEDEDE"/>
<path d="M28.3118 19.8664L25.3211 17.5063C25.2961 17.4866 25.266 17.4743 25.2344 17.471C25.2027 17.4676 25.1708 17.4732 25.1422 17.4871C25.1135 17.501 25.0894 17.5228 25.0726 17.5498C25.0557 17.5768 25.0468 17.608 25.0469 17.6399V19.1563H19.8438V13.9531H21.3625C21.5032 13.9531 21.5829 13.7891 21.4961 13.6789L19.1336 10.6883C19.118 10.6681 19.0979 10.6517 19.075 10.6404C19.052 10.6291 19.0268 10.6233 19.0012 10.6233C18.9756 10.6233 18.9504 10.6291 18.9274 10.6404C18.9045 10.6517 18.8844 10.6681 18.8688 10.6883L16.5063 13.6789C16.4866 13.7039 16.4744 13.734 16.471 13.7657C16.4676 13.7973 16.4732 13.8293 16.4871 13.8579C16.5011 13.8865 16.5228 13.9106 16.5498 13.9275C16.5768 13.9443 16.608 13.9532 16.6399 13.9531H18.1563V19.1563H12.9532V17.6375C12.9532 17.4969 12.7891 17.4172 12.6789 17.5039L9.68832 19.8664C9.66808 19.882 9.6517 19.9021 9.64043 19.9251C9.62915 19.948 9.62329 19.9733 9.62329 19.9988C9.62329 20.0244 9.62915 20.0496 9.64043 20.0726C9.6517 20.0956 9.66808 20.1156 9.68832 20.1313L12.6766 22.4938C12.7868 22.5805 12.9508 22.5031 12.9508 22.3602V20.8438H18.1539V26.0469H16.6352C16.4946 26.0469 16.4149 26.2109 16.5016 26.3211L18.8641 29.3094C18.9321 29.3961 19.0633 29.3961 19.1289 29.3094L21.4914 26.3211C21.5782 26.2109 21.5008 26.0469 21.3579 26.0469H19.8438V20.8438H25.0469V22.3625C25.0469 22.5031 25.211 22.5828 25.3211 22.4961L28.3094 20.1336C28.3296 20.1177 28.3459 20.0976 28.3573 20.0745C28.3686 20.0515 28.3746 20.0262 28.3748 20.0006C28.375 19.9749 28.3695 19.9495 28.3586 19.9263C28.3476 19.9031 28.3316 19.8826 28.3118 19.8664Z" fill="#1C2025"/>
</svg>
