<svg width="21" height="20" viewBox="0 0 21 20" fill="none" xmlns="http://www.w3.org/2000/svg">
<path fill-rule="evenodd" clip-rule="evenodd" d="M11.15 0.293031C10.9624 0.105559 10.7081 0.000244141 10.443 0.000244141C10.1778 0.000244141 9.92348 0.105559 9.73595 0.293031L2.73595 7.29303L0.735952 9.29303C0.640442 9.38528 0.56426 9.49562 0.511851 9.61763C0.459442 9.73963 0.431856 9.87085 0.430702 10.0036C0.429548 10.1364 0.45485 10.2681 0.505131 10.391C0.555412 10.5139 0.629665 10.6255 0.723557 10.7194C0.81745 10.8133 0.929102 10.8876 1.052 10.9379C1.17489 10.9881 1.30657 11.0134 1.43935 11.0123C1.57213 11.0111 1.70335 10.9835 1.82536 10.9311C1.94736 10.8787 2.05771 10.8025 2.14995 10.707L2.44295 10.414V17C2.44295 17.7957 2.75902 18.5587 3.32163 19.1214C3.88424 19.684 4.6473 20 5.44295 20H15.443C16.2386 20 17.0017 19.684 17.5643 19.1214C18.1269 18.5587 18.443 17.7957 18.443 17V10.414L18.736 10.707C18.9246 10.8892 19.1772 10.99 19.4394 10.9877C19.7016 10.9854 19.9524 10.8803 20.1378 10.6948C20.3232 10.5094 20.4283 10.2586 20.4306 9.99643C20.4329 9.73423 20.3321 9.48163 20.15 9.29303L11.15 0.293031Z" fill="white"/>
</svg>
