<svg width="50" height="50" viewBox="0 0 50 50" fill="none" xmlns="http://www.w3.org/2000/svg">
<path d="M45.8337 25.0001C45.8337 36.5063 36.5066 45.8334 25.0003 45.8334C13.4941 45.8334 4.16699 36.5063 4.16699 25.0001C4.16699 13.4938 13.4941 4.16675 25.0003 4.16675" stroke="black" stroke-width="1.5" stroke-linecap="round"/>
<path d="M13.542 22.9167C14.7232 24.2292 16.1587 25.0001 17.7087 25.0001C19.2587 25.0001 20.6941 24.2292 21.8753 22.9167M28.1253 22.9167C29.3066 24.2292 30.742 25.0001 32.292 25.0001C33.842 25.0001 35.2774 24.2292 36.4587 22.9167" stroke="black" stroke-width="1.5" stroke-linecap="round"/>
<path d="M27.0837 33.3333C27.0837 33.8859 26.8642 34.4158 26.4735 34.8065C26.0828 35.1972 25.5529 35.4167 25.0003 35.4167C24.4478 35.4167 23.9179 35.1972 23.5272 34.8065C23.1365 34.4158 22.917 33.8859 22.917 33.3333C22.917 32.7808 23.1365 32.2509 23.5272 31.8602C23.9179 31.4695 24.4478 31.25 25.0003 31.25C25.5529 31.25 26.0828 31.4695 26.4735 31.8602C26.8642 32.2509 27.0837 32.7808 27.0837 33.3333Z" fill="black"/>
<path d="M35.4169 8.33341L42.6336 4.16675L39.5836 15.5501L46.8003 11.3834M29.2669 11.4584L32.8753 13.5417L27.1836 15.0667L30.7919 17.1501" stroke="black" stroke-width="1.5" stroke-linecap="round" stroke-linejoin="round"/>
</svg>
