<svg width="20" height="21" viewBox="0 0 20 21" fill="none" xmlns="http://www.w3.org/2000/svg">
<path fill-rule="evenodd" clip-rule="evenodd" d="M10.7193 0.793C10.5318 0.605529 10.2775 0.500214 10.0123 0.500214C9.74712 0.500214 9.49282 0.605529 9.30529 0.793L2.30529 7.793L0.305288 9.793C0.209778 9.88525 0.133596 9.99559 0.0811869 10.1176C0.0287779 10.2396 0.00119157 10.3708 3.77567e-05 10.5036C-0.00111606 10.6364 0.0241857 10.7681 0.0744666 10.891C0.124747 11.0139 0.199001 11.1255 0.292893 11.2194C0.386786 11.3133 0.498438 11.3875 0.621334 11.4378C0.744231 11.4881 0.87591 11.5134 1.00869 11.5123C1.14147 11.5111 1.27269 11.4835 1.39469 11.4311C1.5167 11.3787 1.62704 11.3025 1.71929 11.207L2.01229 10.914V17.5C2.01229 18.2956 2.32836 19.0587 2.89097 19.6213C3.45358 20.1839 4.21664 20.5 5.01229 20.5H15.0123C15.8079 20.5 16.571 20.1839 17.1336 19.6213C17.6962 19.0587 18.0123 18.2956 18.0123 17.5V10.914L18.3053 11.207C18.4939 11.3892 18.7465 11.49 19.0087 11.4877C19.2709 11.4854 19.5217 11.3802 19.7071 11.1948C19.8925 11.0094 19.9977 10.7586 20 10.4964C20.0022 10.2342 19.9014 9.9816 19.7193 9.793L10.7193 0.793Z" fill="#0EBC93"/>
</svg>
