<svg width="25" height="24" viewBox="0 0 25 24" fill="none" xmlns="http://www.w3.org/2000/svg">
<g opacity="0.8">
<path opacity="0.5" fill-rule="evenodd" clip-rule="evenodd" d="M3.68066 12.0002C3.68066 12.1992 3.75968 12.3899 3.90033 12.5306C4.04099 12.6712 4.23175 12.7502 4.43066 12.7502L13.6807 12.7502L13.6807 11.2502L4.43066 11.2502C4.01666 11.2502 3.68066 11.5862 3.68066 12.0002Z" fill="black" fill-opacity="0.5"/>
<path d="M13.6803 6.00032C13.6805 5.85208 13.7245 5.7072 13.807 5.58398C13.8894 5.46077 14.0065 5.36474 14.1434 5.30803C14.2804 5.25132 14.4311 5.23647 14.5765 5.26535C14.7219 5.29424 14.8555 5.36556 14.9603 5.47032L20.9603 11.4703C21.1008 11.6109 21.1797 11.8016 21.1797 12.0003C21.1797 12.1991 21.1008 12.3897 20.9603 12.5303L14.9603 18.5303C14.8555 18.6351 14.7219 18.7064 14.5765 18.7353C14.4311 18.7642 14.2804 18.7493 14.1434 18.6926C14.0065 18.6359 13.8894 18.5399 13.807 18.4166C13.7245 18.2934 13.6805 18.1486 13.6803 18.0003L13.6803 6.00032Z" fill="black" fill-opacity="0.5"/>
</g>
</svg>
