<svg width="50" height="50" viewBox="0 0 50 50" fill="none" xmlns="http://www.w3.org/2000/svg">
<path d="M9.04297 2.05078C5.91797 2.05078 2.78906 4.39453 2.78906 9.08203L9.04297 21.582L15.293 9.08203C15.293 4.39453 12.168 2.05078 9.04297 2.05078ZM36.6113 5.85938C35.9375 5.8877 35.2832 6.01562 34.7363 6.13281L35.1074 7.85156C35.6543 7.72949 36.2207 7.65234 36.6992 7.61719L36.6113 5.85938ZM9.04297 5.95703C10.7715 5.95703 12.168 7.35645 12.168 9.08203C12.168 10.8105 10.7715 12.207 9.04297 12.207C7.31738 12.207 5.91797 10.8105 5.91797 9.08203C5.91797 7.35645 7.31738 5.95703 9.04297 5.95703ZM38.5547 5.97656L38.2617 7.70508C38.7402 7.80566 39.2187 7.93164 39.6387 8.18359L40.4883 6.64062C39.8926 6.32324 39.2285 6.03809 38.5547 5.97656ZM32.9395 6.63086C32.3437 6.86328 31.748 7.07129 31.2402 7.27539L31.9336 8.88672C32.4707 8.6582 33.0371 8.45898 33.5156 8.29102L32.9395 6.63086ZM42.0898 7.93945L40.752 9.08203C41.1035 9.48437 41.377 9.98047 41.5918 10.3809L43.1641 9.58984C42.832 8.95019 42.5391 8.46582 42.0898 7.93945ZM29.6094 8.02734C29.0137 8.33105 28.5254 8.60156 27.998 8.86719L28.8574 10.4102C29.3652 10.1172 29.9219 9.83398 30.3711 9.60938L29.6094 8.02734ZM26.4551 9.77539C25.9375 10.0781 25.4297 10.3809 24.9316 10.7129L25.8887 12.1777C26.3672 11.8652 26.8652 11.5723 27.3535 11.2793L26.4551 9.77539ZM43.7695 11.5234C43.1934 11.6211 42.6074 11.6895 42.0312 11.7578C42.0703 12.2461 42.041 12.7734 41.9434 13.1836L43.6523 13.584C43.75 12.8809 43.8379 12.1582 43.7695 11.5234ZM23.4473 11.6895C22.959 12.0215 22.4805 12.3633 21.9922 12.6953L23.0078 14.1309C23.4766 13.7891 23.9551 13.4668 24.4336 13.1348L23.4473 11.6895ZM20.5566 13.75C20.0684 14.1016 19.5605 14.4922 19.1406 14.8145L20.2051 16.2109C20.7422 15.8203 21.1133 15.5273 21.6016 15.166L20.5566 13.75ZM41.3574 14.5313C41.0645 14.9805 40.7227 15.4297 40.3809 15.7715L41.6602 16.9922C42.0801 16.4941 42.5293 15.9863 42.8418 15.4785L41.3574 14.5313ZM17.7441 15.9082C17.2656 16.2793 16.7871 16.6602 16.3672 17.0117L17.4805 18.3691C17.9395 17.9883 18.4082 17.5977 18.8379 17.2852L17.7441 15.9082ZM39.1699 16.8945C38.7207 17.2559 38.252 17.6074 37.8223 17.9004L38.8281 19.3457C39.3457 18.9941 39.8535 18.6133 40.293 18.2617L39.1699 16.8945ZM15.0098 18.1543C14.5508 18.5254 14.1113 18.916 13.6621 19.2969L14.8047 20.6348C15.2441 20.2539 15.6836 19.873 16.1328 19.502L15.0098 18.1543ZM36.3867 18.8379C35.8887 19.1309 35.3711 19.4336 34.9023 19.6875L35.7422 21.2402C36.2695 20.918 36.8652 20.6348 37.3047 20.3418L36.3867 18.8379ZM12.3242 20.459C11.8848 20.8496 11.4551 21.2402 11.0156 21.6406L12.1973 22.9492C12.627 22.5586 13.0664 22.168 13.4961 21.7773L12.3242 20.459ZM33.3691 20.498C32.8516 20.752 32.334 21.0156 31.8164 21.2695L32.5684 22.8516C33.1738 22.5586 33.623 22.3145 34.1699 22.0605L33.3691 20.498ZM30.2441 22.002C29.707 22.2461 29.1895 22.4805 28.6426 22.7051L29.3555 24.3164C29.8926 24.082 30.4297 23.8379 30.9668 23.5938L30.2441 22.002ZM9.72656 22.8516C9.22852 23.291 8.88184 23.6328 8.42773 24.0723L9.66797 25.3418C10.127 24.9023 10.498 24.5215 10.9277 24.1504L9.72656 22.8516ZM27.041 23.418C26.5039 23.6426 25.9668 23.877 25.4297 24.1016L26.1133 25.7324C26.6602 25.5078 27.1973 25.2734 27.7344 25.0391L27.041 23.418ZM23.8086 24.7852C23.2715 25.0195 22.7344 25.2539 22.1875 25.4687L22.8711 27.0996C23.4082 26.875 23.9551 26.6406 24.4922 26.416L23.8086 24.7852ZM41.8555 25.4883C38.7305 25.4883 35.6055 27.832 35.6055 32.5195L41.8555 45.0195L48.1055 32.5195C48.1055 27.832 44.9805 25.4883 41.8555 25.4883ZM20.5664 26.1523C20.0098 26.4062 19.4238 26.6406 18.9453 26.8457L19.6387 28.4668C20.2148 28.2227 20.7617 27.9883 21.25 27.7734L20.5664 26.1523ZM17.3242 27.5391C16.7969 27.7832 16.1816 28.0566 15.7129 28.2715L16.4355 29.873C17.0117 29.6191 17.5195 29.3652 18.0273 29.1504L17.3242 27.5391ZM14.1016 29.0039C13.5547 29.2676 12.9883 29.541 12.5 29.7852L13.291 31.3574C13.8184 31.084 14.3652 30.8301 14.8438 30.5957L14.1016 29.0039ZM41.8555 29.3945C43.584 29.3945 44.9805 30.791 44.9805 32.5195C44.9805 34.248 43.584 35.6445 41.8555 35.6445C40.127 35.6445 38.7305 34.248 38.7305 32.5195C38.7305 30.791 40.127 29.3945 41.8555 29.3945ZM10.918 30.5957C10.4004 30.8789 9.88281 31.1719 9.35547 31.4746L10.2344 32.998C10.7324 32.7051 11.2402 32.4316 11.748 32.1582L10.918 30.5957ZM7.82227 32.4219C7.27441 32.7344 6.74512 33.1543 6.28906 33.457L7.35352 34.8633C7.83887 34.5117 8.36133 34.1504 8.7793 33.8965L7.82227 32.4219ZM4.90234 34.6289C4.43359 35.0586 3.97168 35.5566 3.61328 35.9766L4.95117 37.1191C5.32715 36.6602 5.6543 36.3184 6.09375 35.9277L4.90234 34.6289ZM26.1719 34.7559L26.3281 36.5039C26.8359 36.416 27.3438 36.4746 27.8516 36.5527L28.1543 34.8242C27.5098 34.7266 26.8262 34.6582 26.1719 34.7559ZM22.5391 35.7324L23.2031 37.3633C23.7109 37.1387 24.2383 36.9629 24.7754 36.7969C24.5898 36.2402 24.4531 35.6738 24.3066 35.1074C23.6914 35.2832 23.0762 35.5176 22.5391 35.7324ZM30.1074 35.6445L29.1113 37.0898C29.5215 37.3926 29.9219 37.7148 30.2441 38.1152L31.5723 36.9629C31.0742 36.4551 30.6934 35.9766 30.1074 35.6445ZM20.8789 36.5234C20.3418 36.7969 19.8242 37.1094 19.3066 37.4121L20.1953 38.9258C20.7031 38.6523 21.2012 38.3301 21.6992 38.0664L20.8789 36.5234ZM2.54004 37.5977C2.24512 38.2324 2.00586 38.916 1.89453 39.5215L3.62305 39.8242C3.72852 39.2676 3.87988 38.8672 4.10156 38.3887C3.56543 38.1543 3.05371 37.8711 2.54004 37.5977ZM17.7832 38.3594C17.2852 38.6816 16.7969 39.0039 16.3086 39.3359L17.2852 40.8008C17.7734 40.4785 18.252 40.1465 18.7402 39.8242L17.7832 38.3594ZM32.6953 38.4766L31.2207 39.4336C31.5332 39.9023 31.8359 40.3906 32.1191 40.8887L33.6426 40.0098C33.3008 39.4629 33.0566 38.9746 32.6953 38.4766ZM14.8535 40.332C14.3652 40.6543 13.877 40.9668 13.3984 41.3086L14.375 42.7734C14.8437 42.4316 15.3418 42.1094 15.8398 41.7773L14.8535 40.332ZM3.64258 41.2598C3.07715 41.377 2.50684 41.4746 1.93848 41.582C2.04102 42.2656 2.31543 42.9297 2.56348 43.457L4.15039 42.6953C3.93848 42.207 3.7373 41.6992 3.64258 41.2598ZM34.5117 41.5332L32.9883 42.4121C33.291 42.9395 33.6426 43.5059 33.9258 43.9551L35.4004 43.0078C35.0684 42.4902 34.7852 42.002 34.5117 41.5332ZM11.9531 42.2656C11.4648 42.5684 10.9863 42.8613 10.4785 43.1445L11.3477 44.6777C11.8652 44.375 12.3828 44.0723 12.8809 43.75L11.9531 42.2656ZM4.99023 43.8574L3.78906 45.1465C4.33203 45.6641 5.00195 46.0059 5.73242 46.1621L6.12305 44.4531C5.68945 44.3652 5.28418 44.1504 4.99023 43.8574ZM8.99414 43.8867C8.50488 44.1113 7.99707 44.2871 7.4707 44.3945L7.87109 46.1133C8.49805 45.9863 9.08789 45.752 9.67773 45.5078L8.99414 43.8867ZM36.3672 44.3555L35.0098 45.459C35.4297 45.9766 35.9473 46.4746 36.3965 46.8262L37.4805 45.4395C37.0508 45.1074 36.6797 44.707 36.3672 44.3555ZM38.7207 46.0645L38.2813 47.7734C39.0527 47.9297 39.6289 47.9785 40.3516 47.9004L40.1367 46.1523C39.6582 46.2305 39.1895 46.1816 38.7207 46.0645Z" fill="black"/>
</svg>
