<svg width="50" height="50" viewBox="0 0 50 50" fill="none" xmlns="http://www.w3.org/2000/svg">
<g clip-path="url(#clip0_226_1337)">
<path d="M22.6806 7.01397C25.6891 7.01122 28.6308 7.90084 31.1336 9.57028C33.6365 11.2397 35.5879 13.614 36.7411 16.3927C37.8943 19.1714 38.1975 22.2297 37.6123 25.1808C37.027 28.1318 35.5796 30.843 33.4533 32.9713C31.3269 35.0996 28.6171 36.5494 25.6666 37.1374C22.7161 37.7253 19.6575 37.425 16.8777 36.2743C14.0979 35.1236 11.7219 33.1743 10.0502 30.673C8.37843 28.1717 7.48612 25.2308 7.48612 22.2223C7.50436 18.1968 9.11061 14.3412 11.9558 11.4934C14.801 8.64566 18.6551 7.03589 22.6806 7.01397ZM22.6806 4.16675C19.1095 4.16675 15.6187 5.22569 12.6494 7.20966C9.68021 9.19363 7.36599 12.0135 5.99941 15.3127C4.63282 18.612 4.27526 22.2423 4.97194 25.7448C5.66862 29.2472 7.38824 32.4644 9.91336 34.9895C12.4385 37.5146 15.6557 39.2342 19.1581 39.9309C22.6605 40.6276 26.2909 40.27 29.5901 38.9035C32.8893 37.5369 35.7092 35.2227 37.6932 32.2534C39.6772 29.2842 40.7361 25.7934 40.7361 22.2223C40.7361 17.4337 38.8338 12.8412 35.4478 9.4551C32.0617 6.06902 27.4692 4.16675 22.6806 4.16675Z" fill="black"/>
<path d="M48.6107 46.2362L38.3746 35.9307L36.4023 37.889L46.6385 48.1946C46.767 48.324 46.9199 48.427 47.0882 48.4974C47.2566 48.5678 47.4372 48.6044 47.6197 48.605C47.8021 48.6057 47.983 48.5704 48.1518 48.5011C48.3207 48.4319 48.4742 48.3301 48.6037 48.2015C48.7332 48.0729 48.8361 47.9201 48.9066 47.7517C48.977 47.5834 49.0136 47.4028 49.0142 47.2203C49.0149 47.0378 48.9796 46.857 48.9103 46.6881C48.8411 46.5193 48.7393 46.3657 48.6107 46.2362Z" fill="black"/>
</g>
<defs>
<clipPath id="clip0_226_1337">
<rect width="50" height="50" fill="white"/>
</clipPath>
</defs>
</svg>
