<svg width="16" height="16" viewBox="0 0 16 16" fill="none" xmlns="http://www.w3.org/2000/svg">
<path fill-rule="evenodd" clip-rule="evenodd" d="M3.33325 2.66668C3.33325 2.31305 3.47373 1.97392 3.72378 1.72387C3.97382 1.47382 4.31296 1.33334 4.66659 1.33334H11.3333C11.6869 1.33334 12.026 1.47382 12.2761 1.72387C12.5261 1.97392 12.6666 2.31305 12.6666 2.66668V3.90668C12.6665 4.45544 12.531 4.9957 12.272 5.4795C12.013 5.96329 11.6386 6.37567 11.1819 6.68001L9.20192 8.00001L11.1819 9.32001C11.6386 9.62435 12.013 10.0367 12.272 10.5205C12.531 11.0043 12.6665 11.5446 12.6666 12.0933V13.3333C12.6666 13.687 12.5261 14.0261 12.2761 14.2762C12.026 14.5262 11.6869 14.6667 11.3333 14.6667H4.66659C4.31296 14.6667 3.97382 14.5262 3.72378 14.2762C3.47373 14.0261 3.33325 13.687 3.33325 13.3333V12.0933C3.33324 11.5446 3.46869 11.0044 3.72756 10.5206C3.98644 10.0368 4.36074 9.62443 4.81725 9.32001L6.79792 8.00001L4.81792 6.68001C4.36128 6.37567 3.98685 5.96329 3.72786 5.4795C3.46886 4.9957 3.33332 4.45544 3.33325 3.90668V2.66668ZM7.99992 7.19868L10.4426 5.57001C10.7164 5.38745 10.941 5.14013 11.0964 4.84997C11.2518 4.55982 11.3331 4.23581 11.3333 3.90668V2.66668H4.66659V3.90668C4.66672 4.23581 4.74808 4.55982 4.90345 4.84997C5.05882 5.14013 5.28339 5.38745 5.55725 5.57001L7.99992 7.19868ZM7.99992 8.80134L5.55725 10.43C5.28339 10.6126 5.05882 10.8599 4.90345 11.15C4.74808 11.4402 4.66672 11.7642 4.66659 12.0933V13.3333H11.3333V12.0933C11.3331 11.7642 11.2518 11.4402 11.0964 11.15C10.941 10.8599 10.7164 10.6126 10.4426 10.43L7.99992 8.80134Z" fill="white"/>
</svg>
