<svg width="20" height="14" viewBox="0 0 20 14" fill="none" xmlns="http://www.w3.org/2000/svg">
<path d="M18.3479 6.16406C18.0616 5.78398 16.9979 5.52227 16.5479 4.83828C16.0979 4.1543 15.7296 2.67305 14.5843 2.10391C13.439 1.53477 11.2499 1.375 9.9999 1.375C8.7499 1.375 6.5624 1.53125 5.41553 2.10273C4.26865 2.67422 3.90186 4.1543 3.45186 4.83711C3.00186 5.51992 1.93818 5.78398 1.65186 6.16406C1.36553 6.54414 1.16396 8.94688 1.28662 10.125C1.40928 11.3031 1.63818 12 1.63818 12H4.99756C5.54756 12 5.72646 11.7934 6.85146 11.6875C8.08584 11.5703 9.29678 11.5312 9.9999 11.5312C10.703 11.5312 11.953 11.5703 13.1866 11.6875C14.3116 11.7941 14.4964 12 15.0405 12H18.3608C18.3608 12 18.5897 11.3031 18.7124 10.125C18.8351 8.94688 18.6327 6.54414 18.3479 6.16406ZM15.6249 12H17.8124V12.625H15.6249V12ZM2.1874 12H4.3749V12.625H2.1874V12Z" stroke="white" stroke-linecap="round" stroke-linejoin="round"/>
</svg>
