<svg width="50" height="50" viewBox="0 0 50 50" fill="none" xmlns="http://www.w3.org/2000/svg">
<path d="M45.912 36.9315L28.83 7.26943C28.4377 6.60233 27.8779 6.04927 27.2061 5.66501C26.5343 5.28075 25.7738 5.07861 24.9999 5.07861C24.226 5.07861 23.4655 5.28075 22.7937 5.66501C22.122 6.04927 21.5622 6.60233 21.1699 7.26943L4.08782 36.9315C3.71182 37.5752 3.51367 38.3072 3.51367 39.0526C3.51367 39.7981 3.71182 40.5301 4.08782 41.1737C4.47492 41.8455 5.03395 42.4021 5.70744 42.7862C6.38093 43.1703 7.14457 43.3681 7.91985 43.3593H42.08C42.8546 43.3674 43.6175 43.1693 44.2902 42.7852C44.963 42.4011 45.5214 41.8449 45.9081 41.1737C46.2847 40.5304 46.4836 39.7986 46.4842 39.0532C46.4849 38.3077 46.2875 37.5755 45.912 36.9315ZM43.8788 39.9999C43.6963 40.3138 43.4334 40.5733 43.1173 40.7518C42.8011 40.9303 42.443 41.0214 42.08 41.0155H7.91985C7.55682 41.0214 7.19878 40.9303 6.88261 40.7518C6.56645 40.5733 6.30356 40.3138 6.12102 39.9999C5.95028 39.7127 5.86016 39.3848 5.86016 39.0507C5.86016 38.7166 5.95028 38.3886 6.12102 38.1015L23.2011 8.43935C23.3878 8.12916 23.6516 7.87253 23.9668 7.69438C24.282 7.51622 24.6379 7.4226 24.9999 7.4226C25.362 7.4226 25.7179 7.51622 26.0331 7.69438C26.3483 7.87253 26.612 8.12916 26.7988 8.43935L43.8808 38.1015C44.0512 38.3888 44.141 38.7168 44.1407 39.0509C44.1403 39.3851 44.0499 39.7129 43.8788 39.9999ZM23.8281 28.1249V20.3124C23.8281 20.0016 23.9515 19.7035 24.1713 19.4838C24.3911 19.264 24.6891 19.1405 24.9999 19.1405C25.3107 19.1405 25.6088 19.264 25.8286 19.4838C26.0483 19.7035 26.1718 20.0016 26.1718 20.3124V28.1249C26.1718 28.4357 26.0483 28.7338 25.8286 28.9535C25.6088 29.1733 25.3107 29.2968 24.9999 29.2968C24.6891 29.2968 24.3911 29.1733 24.1713 28.9535C23.9515 28.7338 23.8281 28.4357 23.8281 28.1249ZM26.9531 35.1561C26.9531 35.5424 26.8385 35.9201 26.6239 36.2413C26.4093 36.5624 26.1042 36.8128 25.7474 36.9606C25.3905 37.1084 24.9978 37.1471 24.6189 37.0717C24.24 36.9964 23.892 36.8104 23.6189 36.5372C23.3457 36.2641 23.1597 35.9161 23.0843 35.5372C23.009 35.1583 23.0477 34.7656 23.1955 34.4087C23.3433 34.0518 23.5936 33.7468 23.9148 33.5322C24.236 33.3176 24.6136 33.203 24.9999 33.203C25.5179 33.203 26.0147 33.4088 26.381 33.7751C26.7473 34.1414 26.9531 34.6381 26.9531 35.1561Z" fill="black"/>
</svg>
